# xmcd
#
# Track frame offsets: 
#        150
#        11430
#        23993
#        37050
#        47018
#        59965
#        72928
#        84830
#        98058
#        109628
#        122418
#        132855
#        143983
#        155520
#        168068
#        180920
#        192368
#        205298
#        216525
#        228343
#
# Disc length: 3220 seconds
#
# Revision: 0
# Processed by: cddbd v1.5.2PL0 Copyright (c) Steve Scherf et al.
# Submitted via: ExactAudioCopy v0.95b3
#
DISCID=140c9214
DTITLE=Roy Orbison  - The All-Time Greatest Hits [DCC Gold GZS-1118] F
DTITLE=LAC
DYEAR=1900
DGENRE=
TTITLE0=Only The Lonely
TTITLE1=Leah
TTITLE2=In Dreams
TTITLE3=Uptown
TTITLE4=It's Over
TTITLE5=Crying
TTITLE6=Dream Baby
TTITLE7=Blue Angel
TTITLE8=Working For The Man
TTITLE9=Candy Man
TTITLE10=Running Scared
TTITLE11=Falling
TTITLE12=Love Hurts
TTITLE13=Shahdaroba
TTITLE14=I'm Hurtin'
TTITLE15=Mean Woman Blues
TTITLE16=Pretty Paper
TTITLE17=The Crowd
TTITLE18=Blue Bayou
TTITLE19=Oh Pretty Woman
EXTD=
EXTT0=
EXTT1=
EXTT2=
EXTT3=
EXTT4=
EXTT5=
EXTT6=
EXTT7=
EXTT8=
EXTT9=
EXTT10=
EXTT11=
EXTT12=
EXTT13=
EXTT14=
EXTT15=
EXTT16=
EXTT17=
EXTT18=
EXTT19=
PLAYORDER=
